<svg xmlns="http://www.w3.org/2000/svg" width="400" height="400" viewBox="0 0 400 400">
  <defs>
    <style>
      .dice-outline {
        fill: none;
        stroke: hsl(0 0% 10%);
        stroke-width: 1;
      }
    </style>
  </defs>

  <!-- d20s -->
  <path class="dice-outline" d="M 50 20 l -22.5 25 l 0 50 l 22.5 25 l 22.5 -25 l 0 -50 Z M 27.5 45 l 22.5 25 l 22.5 -25 M 50 20 l -22.5 25" transform="translate(150, 50) scale(0.8)"/>
  <path class="dice-outline" d="M 50 20 l -22.5 25 l 0 50 l 22.5 25 l 22.5 -25 l 0 -50 Z M 27.5 45 l 22.5 25 l 22.5 -25 M 50 20 l -22.5 25" transform="translate(300, 250) scale(1.2) rotate(30)"/>
  <path class="dice-outline" d="M 50 20 l -22.5 25 l 0 50 l 22.5 25 l 22.5 -25 l 0 -50 Z M 27.5 45 l 22.5 25 l 22.5 -25 M 50 20 l -22.5 25" transform="translate(50, 320) scale(0.9) rotate(-15)"/>

  <!-- d12s -->
  <path class="dice-outline" d="M 50 12.5 L 92.5 37.5 L 75 87.5 L 25 87.5 L 7.5 37.5 Z" transform="translate(250, 10) scale(0.7) rotate(10)"/>
  <path class="dice-outline" d="M 50 12.5 L 92.5 37.5 L 75 87.5 L 25 87.5 L 7.5 37.5 Z" transform="translate(10, 150) scale(1.1) rotate(-25)"/>
  <path class="dice-outline" d="M 50 12.5 L 92.5 37.5 L 75 87.5 L 25 87.5 L 7.5 37.5 Z" transform="translate(350, 100) scale(0.8) rotate(45)"/>

  <!-- d10/d00s -->
  <path class="dice-outline" d="M50 10 L15 50 l35 50 35-50-35-40z" transform="translate(100, 200) scale(0.9) rotate(5)"/>
  <path class="dice-outline" d="M50 10 L15 50 l35 50 35-50-35-40z" transform="translate(250, 350) scale(1) rotate(-10)"/>

  <!-- d8s -->
  <path class="dice-outline" d="m50 10 40 40-40 40-40-40L50 10z" transform="translate(20, 20) scale(0.9)"/>
  <path class="dice-outline" d="m50 10 40 40-40 40-40-40L50 10z" transform="translate(200, 280) scale(1.1) rotate(20)"/>
  <path class="dice-outline" d="m50 10 40 40-40 40-40-40L50 10z" transform="translate(380, 20) scale(0.6) rotate(-30)"/>

  <!-- d6s -->
  <rect class="dice-outline" x="0" y="0" width="80" height="80" rx="10" ry="10" transform="translate(300, 180) scale(0.8) rotate(-15)"/>
  <rect class="dice-outline" x="0" y="0" width="80" height="80" rx="10" ry="10" transform="translate(80, 80) scale(1.0) rotate(25)"/>
  <rect class="dice-outline" x="0" y="0" width="80" height="80" rx="10" ry="10" transform="translate(180, 360) scale(0.7) rotate(10)"/>

  <!-- d4s -->
  <path class="dice-outline" d="M50 10 10 85h80L50 10z" transform="translate(20, 250) scale(0.7) rotate(15)"/>
  <path class="dice-outline" d="M50 10 10 85h80L50 10z" transform="translate(220, 150) scale(1) rotate(-5)"/>
  <path class="dice-outline" d="M50 10 10 85h80L50 10z" transform="translate(350, 350) scale(0.9) rotate(25)"/>
</svg>